HIERARCHY
ROOT Hips
{
	OFFSET 0.000000 0.000000 0.000000
	CHANNELS 6 Xposition Yposition Zposition Zrotation Yrotation Xrotation 
	JOINT LHipJoint
	{
		OFFSET 0.000000 0.000000 0.000000
		CHANNELS 3 Zrotation Yrotation Xrotation
		JOINT LeftUpLeg
		{
			OFFSET 1.363060 -1.794630 0.839290
			CHANNELS 3 Zrotation Yrotation Xrotation
			JOINT LeftLeg
			{
				OFFSET 2.448110 -6.726130 0.000000
				CHANNELS 3 Zrotation Yrotation Xrotation
				JOINT LeftFoot
				{
					OFFSET 2.562200 -7.039590 0.000000
					CHANNELS 3 Zrotation Yrotation Xrotation
					JOINT LeftToeBase
					{
						OFFSET 0.157640 -0.433110 2.322550
						CHANNELS 3 Zrotation Yrotation Xrotation
						End Site
						{
							OFFSET 0.000000 0.000000 0.000000
						}
					}
				}
			}
		}
	}
	JOINT RHipJoint
	{
		OFFSET 0.000000 0.000000 0.000000
		CHANNELS 3 Zrotation Yrotation Xrotation
		JOINT RightUpLeg
		{
			OFFSET -1.305520 -1.794630 0.839290
			CHANNELS 3 Zrotation Yrotation Xrotation
			JOINT RightLeg
			{
				OFFSET -2.542530 -6.985550 0.000000
				CHANNELS 3 Zrotation Yrotation Xrotation
				JOINT RightFoot
				{
					OFFSET -2.568260 -7.056230 0.000000
					CHANNELS 3 Zrotation Yrotation Xrotation
					JOINT RightToeBase
					{
						OFFSET -0.164730 -0.452590 2.363150
						CHANNELS 3 Zrotation Yrotation Xrotation
						End Site
						{
							OFFSET 0.000000 0.000000 0.000000
						}
					}
				}
			}
		}
	}
	JOINT LowerBack
	{
		OFFSET 0.000000 0.000000 0.000000
		CHANNELS 3 Zrotation Yrotation Xrotation
		JOINT Spine
		{
			OFFSET 0.028270 2.035590 -0.193380
			CHANNELS 3 Zrotation Yrotation Xrotation
			JOINT Spine1
			{
				OFFSET 0.056720 2.048850 -0.042750
				CHANNELS 3 Zrotation Yrotation Xrotation
				JOINT Neck
				{
					OFFSET 0.000000 0.000000 0.000000
					CHANNELS 3 Zrotation Yrotation Xrotation
					JOINT Neck1
					{
						OFFSET -0.054170 1.746240 0.172020
						CHANNELS 3 Zrotation Yrotation Xrotation
						JOINT Head
						{
							OFFSET 0.104070 1.761360 -0.123970
							CHANNELS 3 Zrotation Yrotation Xrotation
							End Site
							{
								OFFSET 0.000000 0.000000 0.000000
							}
						}
					}
				}
				JOINT LeftShoulder
				{
					OFFSET 0.000000 0.000000 0.000000
					CHANNELS 3 Zrotation Yrotation Xrotation
					JOINT LeftArm
					{
						OFFSET 3.362410 1.200890 -0.311210
						CHANNELS 3 Zrotation Yrotation Xrotation
						JOINT LeftForeArm
						{
							OFFSET 4.983000 -0.000000 -0.000000
							CHANNELS 3 Zrotation Yrotation Xrotation
							JOINT LeftHand
							{
								OFFSET 3.483560 -0.000000 -0.000000
								CHANNELS 3 Zrotation Yrotation Xrotation
								JOINT LeftFingerBase
								{
									OFFSET 0.000000 0.000000 0.000000
									CHANNELS 3 Zrotation Yrotation Xrotation
									JOINT LeftHandIndex1
									{
										OFFSET 0.715260 -0.000000 -0.000000
										CHANNELS 3 Zrotation Yrotation Xrotation
										End Site
										{
											OFFSET 0.000000 0.000000 0.000000
										}
									}
								}
								JOINT LThumb
								{
									OFFSET 0.000000 0.000000 0.000000
									CHANNELS 3 Zrotation Yrotation Xrotation
									End Site
									{
										OFFSET 0.000000 0.000000 0.000000
									}
								}
							}
						}
					}
				}
				JOINT RightShoulder
				{
					OFFSET 0.000000 0.000000 0.000000
					CHANNELS 3 Zrotation Yrotation Xrotation
					JOINT RightArm
					{
						OFFSET -3.136600 1.374050 -0.404650
						CHANNELS 3 Zrotation Yrotation Xrotation
						JOINT RightForeArm
						{
							OFFSET -5.241900 -0.000000 -0.000000
							CHANNELS 3 Zrotation Yrotation Xrotation
							JOINT RightHand
							{
								OFFSET -3.444170 -0.000000 -0.000000
								CHANNELS 3 Zrotation Yrotation Xrotation
								JOINT RightFingerBase
								{
									OFFSET 0.000000 0.000000 0.000000
									CHANNELS 3 Zrotation Yrotation Xrotation
									JOINT RightHandIndex1
									{
										OFFSET -0.622530 -0.000000 -0.000000
										CHANNELS 3 Zrotation Yrotation Xrotation
										End Site
										{
											OFFSET 0.000000 0.000000 0.000000
										}
									}
								}
								JOINT RThumb
								{
									OFFSET 0.000000 0.000000 0.000000
									CHANNELS 3 Zrotation Yrotation Xrotation
									End Site
									{
										OFFSET 0.000000 0.000000 0.000000
									}
								}
							}
						}
					}
				}
			}
		}
	}
}
MOTION
Frames: 4
Frame Time: 0.008333
7.064397 13.373055 -11.284795 -164.995843 23.880719 -45.756812 -90.682942 -13.232803 94.034593 -72.189182 -86.920937 154.089720 -116.268431 67.068255 107.401701 -160.767433 29.661834 175.763988 0.368600 3.899800 10.795000 40.572707 81.496946 -174.970039 162.627802 -6.759522 -66.927439 127.668004 -79.789248 -96.366445 -27.535755 51.973378 111.683051 -0.008800 -0.605200 1.663200 -72.352131 -75.853278 -60.593105 -151.014689 -51.225300 -171.351839 143.526160 -78.870739 -12.619863 92.241285 -30.412857 -72.271824 -96.222683 20.751294 -176.195186 -0.582000 1.011100 12.100800 60.934129 -76.676648 -16.566640 -73.300151 -25.487813 11.644552 -32.239167 23.981668 -13.092458 2.651899 4.551512 -18.935108 18.015440 -19.889242 -6.106900 -7.125000 0.000000 0.000000 -8.777200 5.945700 7.916500 -170.421698 -22.457811 -172.709204 -102.828550 -55.755493 78.832680 81.953850 79.952890 -6.435742 86.695246 -46.685212 -34.787447 30.074215 -68.759116 -12.157700 7.125000 0.000000 0.000000 1.047200 -3.002000 0.991100 
7.090037 13.421693 -11.209988 21.028560 -1.961301 113.055725 -33.066054 -14.829525 -8.471677 11.451513 -35.683915 -115.329901 61.720524 -79.703939 -80.584284 31.393914 -87.300878 113.284326 0.289900 3.462700 9.569800 103.263462 36.633741 9.636819 -67.667752 -47.936972 -20.065257 -35.849462 -5.033715 -69.303813 -56.163775 -47.569197 155.569468 -0.009700 -0.635900 1.747400 -57.323142 75.685067 -167.245045 -5.759089 -84.389728 141.587369 102.592315 71.423874 -64.115670 -45.667201 69.905721 106.954749 95.313571 -9.218845 1.617529 -0.773800 0.576900 12.146600 -173.915553 -40.772760 53.627683 10.800685 -19.695996 -169.374067 -122.319004 18.602161 -4.772968 -87.516852 -58.470422 164.894394 -96.883543 -45.616287 175.058104 -7.125000 0.000000 0.000000 -9.765400 8.202800 8.398300 141.838511 -54.931022 -70.640504 -177.556584 76.454114 -95.785984 23.650992 -41.815330 128.040885 21.375475 -60.691717 -77.829502 -23.169409 -78.371339 -12.210000 7.125000 0.000000 0.000000 0.768400 -3.247000 0.723800 
7.141847 13.457378 -11.137560 50.625462 -3.901029 154.715909 -145.296686 52.049009 -179.629632 -147.087736 -15.948333 129.941563 -146.903144 -31.620563 -18.127482 51.757330 50.103909 38.118108 0.278900 3.396800 9.385400 79.997439 -31.350358 158.101991 129.010831 -16.680053 -143.868344 -79.960902 -68.960320 -156.357874 -70.705141 -64.804738 161.705141 -0.001300 -0.234000 0.642800 -11.128523 -51.253174 -3.135197 119.076015 67.279946 93.439457 -16.242906 62.235916 -140.311680 -13.026008 61.048142 -72.014969 -142.436321 47.850492 28.416608 -0.627700 0.898800 12.456300 -62.846860 -78.183182 -74.195112 47.734680 -31.676000 -123.762687 -16.718609 68.613328 -177.036571 12.200579 -1.916285 -8.927426 23.567391 -27.115650 -4.075100 -7.125000 0.000000 0.000000 -10.679700 9.882800 8.847500 -26.611497 12.563234 -156.470685 -151.138668 -67.647105 81.626155 -138.892973 -70.546422 -8.481664 -4.978092 -0.992469 -34.672424 -33.982343 24.347726 -12.305200 7.125000 0.000000 0.000000 0.674300 -3.177900 0.635900 
7.195243 13.490156 -11.069625 165.076355 -20.007517 6.392271 -142.452299 66.292042 134.299442 -61.772350 -89.217437 102.136598 -76.767859 -60.651371 -71.017583 33.496660 87.838718 -91.647867 0.279300 3.398800 9.391200 79.962301 82.103780 101.031558 -152.451311 -10.836849 37.354734 29.594823 -78.860743 121.707075 103.552533 21.311337 -129.972548 -0.000500 -0.149500 0.410700 126.558879 -32.695801 37.093987 -104.258679 58.874618 -59.187888 -22.902146 28.844316 -97.375071 -158.649266 -53.302782 -144.318427 -108.872871 -73.932798 -118.214590 -0.688700 0.819900 12.581600 172.023756 -4.858082 -12.952172 -10.978912 70.753241 151.523080 128.628122 -42.451308 -55.314163 -54.468559 -7.443174 -41.694460 -47.844330 18.703329 -3.399399 -7.125000 0.000000 0.000000 -11.536100 11.159400 9.280200 84.109900 14.263604 128.146075 73.323407 -44.765746 -78.219240 90.114750 78.392873 177.778234 28.840852 -9.890491 -31.088043 -7.792469 2.634819 -12.309300 7.125000 0.000000 0.000000 0.793300 -3.023300 0.750400 
